<svg xmlns="http://www.w3.org/2000/svg" width="365.349" height="90.016"><path data-name="パス 1693" d="M363.231 60.787a21.483 21.483 0 01-5.56 7.466 23.215 23.215 0 01-7.731 4.342 27.463 27.463 0 01-8.737 1.43 27.807 27.807 0 01-9.425-1.589 22.853 22.853 0 01-7.731-4.553 21.392 21.392 0 01-5.189-7.2 22.968 22.968 0 01-1.906-9.531 27.188 27.188 0 012.118-11.384 20.219 20.219 0 0113.449-11.543 34.362 34.362 0 019.108-1.218 26.3 26.3 0 019.107 1.588 22.511 22.511 0 017.572 4.554 21.772 21.772 0 015.136 7.2 22.981 22.981 0 011.907 9.531 25.708 25.708 0 01-2.118 10.907zm-12.761-13.7a33.636 33.636 0 00-1.06-7.286 14.429 14.429 0 00-2.806-5.651 6.665 6.665 0 00-5.4-2.27 7.555 7.555 0 00-5.3 1.743 10.587 10.587 0 00-2.806 4.118 16.728 16.728 0 00-1.059 4.911q-.159 2.535-.159 4.117 0 3.276.159 7.182a33.534 33.534 0 001.059 7.287 13.98 13.98 0 002.859 5.649 7.073 7.073 0 005.666 2.27 7.144 7.144 0 005.083-1.689 10.66 10.66 0 002.7-4.066 16.766 16.766 0 001.06-4.909q.158-2.535.158-4.225.004-3.277-.154-7.185zm-35.372 20.584h2.963v4.448h-26.79v-4.448q3.177 0 3.6-.742l-7.942-15.567q-1.167.636-2.33 1.324t-2.648 1.429v9.532q0 4.025 4.448 4.024v4.448h-24.992v-4.448q6.67 0 6.671-4.448V11.649q0-4.341-7.1-4.342V2.859L281.951 0v47.55q1.906-1.272 4.289-3.125t4.4-3.759a38.335 38.335 0 003.389-3.6 4.945 4.945 0 001.377-2.753q0-1.164-5.719-1.165v-4.13h24.463v4.13q-4.554 0-10.907 2.859-1.272 1.379-2.913 2.966t-3.547 3.6l11.437 20.333q3.276 4.765 6.878 4.765zm-86.786 0q6.884 0 6.884-5.613V41.725q0-7.518-6.142-7.519v-3.918l20.121-3.495v35.689q0 5.19 7.943 5.189v4.448h-28.806zm13.132-50.621a5.978 5.978 0 01-4.659-1.641q-1.485-1.641-1.483-5.348 0-6.565 6.566-6.566 6.141 0 6.142 6.566 0 3.708-1.694 5.348a6.72 6.72 0 01-4.872 1.641zm-21.127 24.251q-4.872 0-4.872-4.659v-.795a3.687 3.687 0 01.106-.9h-1.059a5.867 5.867 0 00-4.553 1.854 13.1 13.1 0 00-2.648 4.553 24.977 24.977 0 00-1.271 5.613 46.58 46.58 0 00-.317 4.925v11.013q0 4.766 7.942 4.766v4.448h-28.484v-4.448q6.672 0 6.672-5.189v-21.5q0-6.777-6.99-6.778v-3.916l20.863-3.495v8.79a22.492 22.492 0 011.906-2.913 16.9 16.9 0 012.7-2.806 14.642 14.642 0 013.283-2.065 8.726 8.726 0 013.654-.794q8.471 0 8.472 7.731-.003 6.567-5.404 6.565zm-68.256 26.37q6.882 0 6.883-5.613V41.725q0-7.518-6.142-7.519v-3.918l20.121-3.495v35.689q0 5.19 7.943 5.189v4.448h-28.805zm13.131-50.621a5.98 5.98 0 01-4.659-1.641q-1.485-1.641-1.483-5.348 0-6.565 6.566-6.566 6.141 0 6.142 6.566 0 3.708-1.694 5.348a6.72 6.72 0 01-4.869 1.641zm-24.515 66.8a21.624 21.624 0 01-5.942 4.448 15.186 15.186 0 01-6.968 1.716 12.991 12.991 0 01-6.513-1.589 5.233 5.233 0 01-2.806-4.871q0-4.979 4.977-4.977a2.312 2.312 0 012.065.863 7.007 7.007 0 01.9 1.943c.212.718.387 1.367.53 1.943s.423.863.847.863q4.659 0 4.66-10.7v-35.9q0-3.282-7.731-3.283v-3.912l21.6-3.813v44.158a16.994 16.994 0 01-1.524 6.936 21.842 21.842 0 01-4.092 6.177zm-1.579-66.8a6.006 6.006 0 01-4.606-1.641q-1.537-1.641-1.536-5.348 0-6.565 6.566-6.566 6.036 0 6.036 6.566 0 3.708-1.588 5.348a6.5 6.5 0 01-4.869 1.641zm-22.737 51.203a23.211 23.211 0 01-7.73 4.342 27.467 27.467 0 01-8.737 1.43 27.813 27.813 0 01-9.423-1.586 22.839 22.839 0 01-7.73-4.553 21.378 21.378 0 01-5.189-7.2 22.968 22.968 0 01-1.907-9.531 27.187 27.187 0 012.116-11.389 20.217 20.217 0 0113.45-11.543 34.36 34.36 0 019.107-1.218 26.306 26.306 0 019.108 1.588 22.521 22.521 0 017.572 4.554 21.8 21.8 0 015.136 7.2 22.981 22.981 0 011.906 9.531 25.692 25.692 0 01-2.118 10.908 21.458 21.458 0 01-5.561 7.467zm-7.2-21.17a33.638 33.638 0 00-1.059-7.286 14.455 14.455 0 00-2.806-5.651 6.667 6.667 0 00-5.4-2.27 7.552 7.552 0 00-5.295 1.743 10.589 10.589 0 00-2.806 4.12 16.76 16.76 0 00-1.059 4.911q-.159 2.535-.159 4.117 0 3.276.159 7.182a33.6 33.6 0 001.059 7.287 13.969 13.969 0 002.86 5.649 7.069 7.069 0 005.665 2.27 7.147 7.147 0 005.084-1.689 10.683 10.683 0 002.7-4.066 16.766 16.766 0 001.057-4.911q.159-2.535.159-4.225.002-3.273-.159-7.181zm-43.5-29.821v55.177l-3.6.953-45.011-47.34v29.97q0 11.651 10.8 11.649v4.448H1.483v-4.448q8.9 0 8.895-11.649V10.061q0-3.495-10.378-3.495v-4.66h20.015l39.713 42.572V17.262q0-10.7-10.7-10.7V1.906h26.268v4.66q-9.635 0-9.635 10.696z" fill="#fff" fill-rule="evenodd"/></svg>